<?xml version="1.0" standalone="no"?>
<!DOCTYPE svg PUBLIC "-//W3C//DTD SVG 20010904//EN"
 "http://www.w3.org/TR/2001/REC-SVG-20010904/DTD/svg10.dtd">
<svg version="1.0" xmlns="http://www.w3.org/2000/svg"
 width="200.000000pt" height="200.000000pt" viewBox="0 0 200.000000 200.000000"
 preserveAspectRatio="xMidYMid meet">

<g transform="translate(0.000000,200.000000) scale(0.100000,-0.100000)"
fill="#000000" stroke="none">
<path d="M384 1123 c-59 -157 -59 -158 -91 -161 -30 -3 -33 -6 -33 -38 l0 -35
56 3 56 3 36 88 c22 54 39 83 43 75 4 -7 37 -88 74 -181 l68 -167 17 27 c9 16
45 79 79 141 35 61 66 112 70 112 4 0 18 -23 31 -50 l24 -51 99 3 99 3 36 88
c22 54 39 83 43 75 4 -7 37 -88 74 -181 l68 -167 17 27 c9 16 45 79 79 141 35
61 66 112 70 112 4 0 18 -22 31 -50 l23 -50 54 0 53 0 0 35 c0 32 -2 35 -30
35 -28 0 -33 7 -78 97 l-49 96 -77 -137 c-43 -76 -81 -134 -85 -129 -4 4 -36
85 -71 178 -92 249 -76 243 -146 58 l-59 -158 -52 -3 -52 -3 -49 97 -49 97
-77 -137 c-43 -76 -81 -134 -85 -129 -4 4 -36 85 -71 178 -92 249 -76 243
-146 58z"/>
</g>
</svg>
